<svg width="69" height="69" viewBox="0 0 69 69" fill="none" xmlns="http://www.w3.org/2000/svg">
<path fill-rule="evenodd" clip-rule="evenodd" d="M34.9134 0.599121C16.0878 0.599121 0.82666 15.8603 0.82666 34.6858C0.82666 53.5114 16.0878 68.7726 34.9134 68.7726C53.7389 68.7726 69.0001 53.5114 69.0001 34.6858C69.0001 25.6455 65.4088 16.9754 59.0163 10.5829C52.6238 4.19039 43.9537 0.599121 34.9134 0.599121ZM62.1826 34.6856C58.2791 33.5136 54.2257 32.9165 50.15 32.9131C47.7252 32.9455 45.3076 33.185 42.9236 33.6289C42.0715 31.5497 41.1852 29.5385 40.2308 27.5274C45.8365 24.7266 50.9484 21.0309 55.3653 16.5856C59.7895 21.5733 62.2171 28.0185 62.1826 34.6856ZM37.8792 23.0282C42.9368 20.4911 47.5431 17.14 51.5139 13.1089C46.7589 9.43414 40.9231 7.43298 34.9136 7.41646C32.7072 7.42536 30.5098 7.70003 28.369 8.23455C31.9243 12.9072 35.1043 17.8538 37.8792 23.0282ZM23.3917 10.0069C27.086 14.7723 30.3809 19.8343 33.2427 25.1414C27.2555 27.4794 20.8884 28.6928 14.4609 28.7205C12.4448 28.6985 10.431 28.5734 8.4276 28.3456C10.3644 20.2737 15.8724 13.5236 23.3917 10.0069ZM7.644 33.3907V34.686C7.6598 41.4117 10.1606 47.8944 14.6659 52.8883C19.9698 44.2628 28.234 37.8648 37.913 34.8905C37.1972 33.118 36.3791 31.4137 35.5611 29.7094L35.561 29.7094L35.561 29.7093L35.561 29.7093C28.8541 32.4135 21.6929 33.8133 14.4613 33.8338C12.182 33.8259 9.90523 33.6779 7.644 33.3907ZM18.4845 56.3989C23.1602 48.3077 30.7607 42.3176 39.7205 39.6624C42.1173 46.2854 43.8194 53.1395 44.7995 60.1144C35.9884 63.5808 26.006 62.1843 18.4845 56.433V56.3989ZM44.7652 38.5036C46.9406 44.7222 48.5604 51.1215 49.6055 57.6262C55.8642 53.6291 60.222 47.2524 61.6722 39.9693C57.9569 38.7316 54.067 38.0986 50.1509 38.0945C48.3486 38.1108 46.5494 38.2475 44.7652 38.5036Z" fill="#07484A"/>
</svg>
