<svg width="69" height="70" viewBox="0 0 69 70" fill="none" xmlns="http://www.w3.org/2000/svg">
<path d="M68.9132 7.96192V62.0462C68.9132 66.3133 65.5218 69.7725 61.3384 69.7725H47.1356C46.0897 69.7725 45.2418 68.9077 45.2418 67.8409V44.6619H54.1044C55.0044 44.6621 55.7802 44.0162 55.9602 43.1167L57.3237 36.163C57.38 35.8821 57.311 35.5902 57.1354 35.3663C56.9598 35.1424 56.6957 35.0097 56.4147 35.004H45.2418V22.4488C45.2418 21.9154 45.6658 21.483 46.1887 21.483H55.6572C56.7031 21.483 57.5509 20.6182 57.5509 19.5514V13.7567C57.5509 12.6899 56.7031 11.8251 55.6572 11.8251H46.1887C39.9135 11.8251 34.8265 17.0139 34.8265 23.4146V35.004H30.1679C29.1221 35.004 28.2742 35.8688 28.2742 36.9356V42.7304C28.2742 43.7972 29.1221 44.6619 30.1679 44.6619H34.8265V67.8409C34.8265 68.9077 33.9786 69.7725 32.9328 69.7725H8.31457C4.13111 69.7725 0.739746 66.3133 0.739746 62.0462V7.96192C0.739746 3.69479 4.13111 0.235596 8.31457 0.235596H61.3384C65.5218 0.235596 68.9132 3.69479 68.9132 7.96192Z" fill="#07484A"/>
</svg>
