<svg width="70" height="69" viewBox="0 0 70 69" fill="none" xmlns="http://www.w3.org/2000/svg">
<path fill-rule="evenodd" clip-rule="evenodd" d="M50.1561 0.235596H19.6144C9.07212 0.235596 0.525879 8.78183 0.525879 19.3242V49.8659C0.525879 60.4082 9.07212 68.9544 19.6144 68.9544H50.1561C60.6985 68.9544 69.2447 60.4082 69.2447 49.8659V19.3242C69.2447 8.78183 60.6985 0.235596 50.1561 0.235596ZM62.5636 49.8657C62.5426 56.7095 56.9998 62.2523 50.156 62.2733H19.6143C12.7705 62.2523 7.2277 56.7095 7.20674 49.8657V19.324C7.2277 12.4802 12.7705 6.93742 19.6143 6.91646H50.156C56.9998 6.93742 62.5426 12.4802 62.5636 19.324V49.8657ZM53.0197 20.2787C55.1282 20.2787 56.8374 18.5695 56.8374 16.461C56.8374 14.3525 55.1282 12.6433 53.0197 12.6433C50.9112 12.6433 49.202 14.3525 49.202 16.461C49.202 18.5695 50.9112 20.2787 53.0197 20.2787ZM34.8854 17.4155C25.3973 17.4155 17.7057 25.1071 17.7057 34.5952C17.7057 44.0833 25.3973 51.7749 34.8854 51.7749C44.3735 51.7749 52.0651 44.0833 52.0651 34.5952C52.0753 30.0357 50.2686 25.6601 47.0445 22.4361C43.8205 19.212 39.4449 17.4053 34.8854 17.4155ZM24.3866 34.595C24.3866 40.3933 29.087 45.0937 34.8853 45.0937C40.6836 45.0937 45.384 40.3933 45.384 34.595C45.384 28.7967 40.6836 24.0963 34.8853 24.0963C29.087 24.0963 24.3866 28.7967 24.3866 34.595Z" fill="#07484A"/>
</svg>
