<svg width="69" height="69" viewBox="0 0 69 69" fill="none" xmlns="http://www.w3.org/2000/svg">
<path fill-rule="evenodd" clip-rule="evenodd" d="M7.76628 0.235596H61.2143C65.4312 0.235596 68.8497 3.65409 68.8497 7.87102V61.319C68.8497 65.5359 65.4312 68.9544 61.2143 68.9544H7.76628C3.54936 68.9544 0.130859 65.5359 0.130859 61.319V7.87102C0.130859 3.65409 3.54936 0.235596 7.76628 0.235596ZM19.2193 57.5014C20.2735 57.5014 21.1281 56.6468 21.1281 55.5926V28.8686C21.1281 27.8143 20.2735 26.9597 19.2193 26.9597H13.4927C12.4385 26.9597 11.5839 27.8143 11.5839 28.8686V55.5926C11.5839 56.6468 12.4385 57.5014 13.4927 57.5014H19.2193ZM16.3564 23.1417C13.1937 23.1417 10.6298 20.5779 10.6298 17.4152C10.6298 14.2525 13.1937 11.6886 16.3564 11.6886C19.5191 11.6886 22.083 14.2525 22.083 17.4152C22.083 20.5779 19.5191 23.1417 16.3564 23.1417ZM55.4878 57.5013C56.542 57.5013 57.3967 56.6467 57.3967 55.5924V38.0309C57.5206 31.9637 53.0354 26.7859 47.0125 26.0433C42.8017 25.6587 38.7214 27.6254 36.3993 31.1591V28.8684C36.3993 27.8142 35.5446 26.9596 34.4904 26.9596H28.7638C27.7096 26.9596 26.855 27.8142 26.855 28.8684V55.5924C26.855 56.6467 27.7096 57.5013 28.7638 57.5013H34.4904C35.5446 57.5013 36.3993 56.6467 36.3993 55.5924V41.276C36.3993 38.1133 38.9631 35.5494 42.1258 35.5494C45.2885 35.5494 47.8524 38.1133 47.8524 41.276V55.5924C47.8524 56.6467 48.707 57.5013 49.7612 57.5013H55.4878Z" fill="#07484A"/>
</svg>
