<svg width="68" height="59" viewBox="0 0 68 59" fill="none" xmlns="http://www.w3.org/2000/svg">
<path d="M67.452 9.23619C65.7282 11.5549 63.6445 13.5776 61.2814 15.2261C61.2814 15.8318 61.2814 16.4375 61.2814 17.0769C61.3003 28.0767 56.9432 38.624 49.1867 46.3545C41.4303 54.0849 30.9234 58.3518 20.0215 58.1985C13.7189 58.2197 7.49694 56.7685 1.84312 53.9584C1.53826 53.8242 1.34164 53.52 1.3428 53.1845V52.8143C1.3428 52.3311 1.73107 51.9394 2.21002 51.9394C8.40535 51.7335 14.3797 49.5674 19.2877 45.7476C13.68 45.6337 8.63461 42.2838 6.31266 37.1329C6.19538 36.8516 6.23189 36.5289 6.40902 36.2815C6.58615 36.034 6.87828 35.8976 7.17988 35.9215C8.88417 36.0942 10.6055 35.9343 12.2498 35.4504C6.05945 34.1545 1.40809 28.9722 0.742409 22.6293C0.71875 22.325 0.853972 22.0303 1.09923 21.8516C1.34448 21.6729 1.66431 21.6361 1.94318 21.7544C3.60441 22.4936 5.39769 22.8829 7.21324 22.8985C1.78902 19.3084 -0.553887 12.4799 1.50957 6.2749C1.72257 5.67195 2.23429 5.22653 2.8567 5.10233C3.4791 4.97812 4.12037 5.19345 4.54486 5.66918C11.8645 13.5249 21.9218 18.2062 32.5962 18.7258C32.3228 17.6256 32.1883 16.4949 32.196 15.3607C32.2958 9.41329 35.945 4.11524 41.4352 1.94687C46.9254 -0.221501 53.1699 1.16895 57.2454 5.46728C60.0235 4.93359 62.7092 3.99261 65.2172 2.67424C65.4009 2.55858 65.6339 2.55858 65.8176 2.67424C65.9323 2.85958 65.9323 3.09462 65.8176 3.27996C64.6028 6.08512 62.5506 8.43789 59.9472 10.0102C62.227 9.74356 64.4667 9.20125 66.6181 8.39492C66.7993 8.27058 67.0374 8.27058 67.2185 8.39492C67.3703 8.46493 67.4837 8.59881 67.5287 8.76091C67.5737 8.92301 67.5456 9.09687 67.452 9.23619Z" fill="#07484A"/>
</svg>
